<svg width="322" height="123" viewBox="0 0 322 123" fill="none" xmlns="http://www.w3.org/2000/svg">
<g filter="url(#filter0_d_627_729)">
<g filter="url(#filter1_d_627_729)">
<path d="M233.139 61.5008V16.4235H281.982C281.982 16.4235 300.903 19.4781 300.903 40.8601C300.903 58.8317 286.668 63.7843 286.668 63.7843L302 89.4962H277.979C277.979 89.4962 255.588 57.4379 265.701 46.3169C265.701 46.3169 266.561 52.2184 269.675 54.2647C272.789 56.2813 275.102 57.5565 275.695 58.6538C276.288 59.7511 278.008 64.8223 280.618 64.8223C283.228 64.8223 285.897 59.0393 283.584 52.9895C281.27 46.9396 273.649 29.2053 273.649 29.2053L273.352 20.7533C273.352 20.7533 269.438 23.2148 269.378 27.5149C269.378 27.5149 255.677 25.1424 245.238 36.7083C234.77 48.2742 233.139 61.5008 233.139 61.5008Z" fill="#FFCC00"/>
</g>
<g filter="url(#filter2_d_627_729)">
<path d="M74.7452 16.5125V29.6501H35.8957V45.5458H71.572V58.1496H35.8957V76.0916H75.4569V89.5258H20V16.5125H74.7452Z" fill="#FFCC00"/>
</g>
<g filter="url(#filter3_d_627_729)">
<path d="M151.436 50.0535V89.5258H141.293L139.751 81.2221C134.294 87.9244 126.969 91.2755 117.806 91.2755C107.634 91.2755 99.3596 87.7464 92.9835 80.7179C86.6371 73.6894 83.4342 64.5554 83.4342 53.3453C83.4342 42.076 86.7854 32.853 93.4877 25.7059C100.19 18.5587 108.79 15 119.318 15C127.652 15 134.71 17.3428 140.433 22.0285C146.187 26.7142 149.508 32.8826 150.487 40.5339H135.006C134.265 36.7083 132.485 33.7427 129.668 31.6074C126.851 29.5018 123.351 28.4342 119.111 28.4342C113.031 28.4342 108.256 30.6288 104.757 35.0475C101.258 39.4663 99.5375 45.5458 99.5375 53.3453C99.5375 61.2635 101.287 67.432 104.816 71.8508C108.345 76.2695 113.268 78.4641 119.644 78.4641C124.627 78.4641 128.749 76.9516 131.952 73.897C135.154 70.8425 136.875 66.8685 137.082 61.9456H120.771V50.0535H151.436Z" fill="#FFCC00"/>
</g>
<g filter="url(#filter4_d_627_729)">
<path d="M200.546 16.4235L228.334 89.5258H211.519L205.766 73.215H178.601L172.67 89.5258H156.27L184.057 16.4235H200.546ZM201.881 61.5304L192.243 34.3654L182.515 61.5304H201.881Z" fill="#FFCC00"/>
</g>
</g>
<g filter="url(#filter5_d_627_729)">
<path d="M162.409 113.65C161.163 112.968 160.185 112.049 159.473 110.862C158.761 109.676 158.405 108.342 158.405 106.829C158.405 105.346 158.761 103.982 159.473 102.796C160.185 101.61 161.163 100.69 162.439 100.008C163.684 99.3262 165.078 99 166.65 99C167.895 99 169.052 99.2076 170.09 99.6524C171.128 100.097 172.017 100.72 172.729 101.55L170.891 103.27C169.764 102.084 168.399 101.491 166.798 101.491C165.73 101.491 164.811 101.728 163.981 102.173C163.15 102.618 162.498 103.27 162.023 104.071C161.549 104.872 161.312 105.791 161.312 106.829C161.312 107.867 161.549 108.787 162.023 109.587C162.498 110.388 163.15 111.04 163.981 111.485C164.811 111.93 165.76 112.167 166.798 112.167C168.429 112.167 169.793 111.574 170.891 110.358L172.729 112.108C172.017 112.938 171.128 113.561 170.09 114.006C169.052 114.451 167.895 114.658 166.62 114.658C165.048 114.658 163.654 114.303 162.409 113.65Z" fill="black"/>
<path d="M185.096 110.922H177.415L175.902 114.451H172.966L179.876 99.2372H182.693L189.633 114.451H186.638L185.096 110.922ZM184.147 108.698L181.24 102.055L178.364 108.698H184.147Z" fill="black"/>
<path d="M201.614 114.421L198.47 109.973C198.352 109.973 198.144 110.002 197.877 110.002H194.407V114.451H191.56V99.2372H197.877C199.212 99.2372 200.368 99.4448 201.347 99.8897C202.326 100.335 203.097 100.957 203.631 101.758C204.164 102.559 204.431 103.537 204.431 104.635C204.431 105.791 204.135 106.77 203.601 107.6C203.037 108.431 202.237 109.053 201.169 109.439L204.698 114.451H201.614V114.421ZM200.606 102.381C199.953 101.847 199.004 101.61 197.788 101.61H194.437V107.66H197.759C199.004 107.66 199.953 107.393 200.576 106.859C201.228 106.325 201.555 105.584 201.555 104.605C201.555 103.656 201.228 102.915 200.606 102.381Z" fill="black"/>
<path d="M223.737 114.421L220.594 109.973C220.475 109.973 220.268 110.002 220.001 110.002H216.531V114.451H213.684V99.2372H220.001C221.335 99.2372 222.492 99.4448 223.47 99.8897C224.449 100.335 225.22 100.957 225.754 101.758C226.288 102.559 226.555 103.537 226.555 104.635C226.555 105.791 226.258 106.77 225.724 107.6C225.161 108.431 224.36 109.053 223.293 109.439L226.822 114.451H223.737V114.421ZM222.699 102.381C222.047 101.847 221.098 101.61 219.882 101.61H216.531V107.66H219.882C221.128 107.66 222.077 107.393 222.699 106.859C223.352 106.325 223.678 105.584 223.678 104.605C223.648 103.656 223.352 102.915 222.699 102.381Z" fill="black"/>
<path d="M241.235 112.078V114.451H229.698V99.2372H240.908V101.61H232.545V105.554H239.959V107.867H232.545V112.049H241.235V112.078Z" fill="black"/>
<path d="M258.079 99.2076V114.421H255.737L247.255 104.13V114.421H244.438V99.2076H246.78L255.262 109.498V99.2076H258.079Z" fill="black"/>
<path d="M265.315 101.61H260.215V99.2076H273.263V101.61H268.162V114.421H265.315V101.61Z" fill="black"/>
<path d="M284.622 110.922H276.941L275.428 114.451H272.492L279.402 99.2372H282.22L289.159 114.451H286.164L284.622 110.922ZM283.673 108.698L280.766 102.055L277.89 108.698H283.673Z" fill="black"/>
<path d="M291.087 99.2076H293.934V112.019H301.97V114.421H291.087V99.2076Z" fill="black"/>
</g>
<g filter="url(#filter6_d_627_729)">
<path d="M151.762 99.5338H20V101.936H151.762V99.5338Z" fill="black"/>
</g>
<g filter="url(#filter7_d_627_729)">
<path d="M151.762 105.791H20V108.193H151.762V105.791Z" fill="black"/>
</g>
<g filter="url(#filter8_d_627_729)">
<path d="M151.762 114.451V112.049H85.8811H20V114.451H151.762Z" fill="black"/>
</g>
<defs>
<filter id="filter0_d_627_729" x="16" y="15" width="290" height="84.2755" filterUnits="userSpaceOnUse" color-interpolation-filters="sRGB">
<feFlood flood-opacity="0" result="BackgroundImageFix"/>
<feColorMatrix in="SourceAlpha" type="matrix" values="0 0 0 0 0 0 0 0 0 0 0 0 0 0 0 0 0 0 127 0" result="hardAlpha"/>
<feOffset dy="4"/>
<feGaussianBlur stdDeviation="2"/>
<feComposite in2="hardAlpha" operator="out"/>
<feColorMatrix type="matrix" values="0 0 0 0 0 0 0 0 0 0 0 0 0 0 0 0 0 0 0.25 0"/>
<feBlend mode="normal" in2="BackgroundImageFix" result="effect1_dropShadow_627_729"/>
<feBlend mode="normal" in="SourceGraphic" in2="effect1_dropShadow_627_729" result="shape"/>
</filter>
<filter id="filter1_d_627_729" x="213.139" y="1.42351" width="108.861" height="113.073" filterUnits="userSpaceOnUse" color-interpolation-filters="sRGB">
<feFlood flood-opacity="0" result="BackgroundImageFix"/>
<feColorMatrix in="SourceAlpha" type="matrix" values="0 0 0 0 0 0 0 0 0 0 0 0 0 0 0 0 0 0 127 0" result="hardAlpha"/>
<feOffset dy="5"/>
<feGaussianBlur stdDeviation="10"/>
<feComposite in2="hardAlpha" operator="out"/>
<feColorMatrix type="matrix" values="0 0 0 0 0 0 0 0 0 0 0 0 0 0 0 0 0 0 0.2 0"/>
<feBlend mode="normal" in2="BackgroundImageFix" result="effect1_dropShadow_627_729"/>
<feBlend mode="normal" in="SourceGraphic" in2="effect1_dropShadow_627_729" result="shape"/>
</filter>
<filter id="filter2_d_627_729" x="0" y="1.51245" width="95.4569" height="113.013" filterUnits="userSpaceOnUse" color-interpolation-filters="sRGB">
<feFlood flood-opacity="0" result="BackgroundImageFix"/>
<feColorMatrix in="SourceAlpha" type="matrix" values="0 0 0 0 0 0 0 0 0 0 0 0 0 0 0 0 0 0 127 0" result="hardAlpha"/>
<feOffset dy="5"/>
<feGaussianBlur stdDeviation="10"/>
<feComposite in2="hardAlpha" operator="out"/>
<feColorMatrix type="matrix" values="0 0 0 0 0 0 0 0 0 0 0 0 0 0 0 0 0 0 0.2 0"/>
<feBlend mode="normal" in2="BackgroundImageFix" result="effect1_dropShadow_627_729"/>
<feBlend mode="normal" in="SourceGraphic" in2="effect1_dropShadow_627_729" result="shape"/>
</filter>
<filter id="filter3_d_627_729" x="63.4342" y="0" width="108.001" height="116.276" filterUnits="userSpaceOnUse" color-interpolation-filters="sRGB">
<feFlood flood-opacity="0" result="BackgroundImageFix"/>
<feColorMatrix in="SourceAlpha" type="matrix" values="0 0 0 0 0 0 0 0 0 0 0 0 0 0 0 0 0 0 127 0" result="hardAlpha"/>
<feOffset dy="5"/>
<feGaussianBlur stdDeviation="10"/>
<feComposite in2="hardAlpha" operator="out"/>
<feColorMatrix type="matrix" values="0 0 0 0 0 0 0 0 0 0 0 0 0 0 0 0 0 0 0.2 0"/>
<feBlend mode="normal" in2="BackgroundImageFix" result="effect1_dropShadow_627_729"/>
<feBlend mode="normal" in="SourceGraphic" in2="effect1_dropShadow_627_729" result="shape"/>
</filter>
<filter id="filter4_d_627_729" x="136.27" y="1.42351" width="112.064" height="113.102" filterUnits="userSpaceOnUse" color-interpolation-filters="sRGB">
<feFlood flood-opacity="0" result="BackgroundImageFix"/>
<feColorMatrix in="SourceAlpha" type="matrix" values="0 0 0 0 0 0 0 0 0 0 0 0 0 0 0 0 0 0 127 0" result="hardAlpha"/>
<feOffset dy="5"/>
<feGaussianBlur stdDeviation="10"/>
<feComposite in2="hardAlpha" operator="out"/>
<feColorMatrix type="matrix" values="0 0 0 0 0 0 0 0 0 0 0 0 0 0 0 0 0 0 0.2 0"/>
<feBlend mode="normal" in2="BackgroundImageFix" result="effect1_dropShadow_627_729"/>
<feBlend mode="normal" in="SourceGraphic" in2="effect1_dropShadow_627_729" result="shape"/>
</filter>
<filter id="filter5_d_627_729" x="154.405" y="99" width="151.565" height="23.6584" filterUnits="userSpaceOnUse" color-interpolation-filters="sRGB">
<feFlood flood-opacity="0" result="BackgroundImageFix"/>
<feColorMatrix in="SourceAlpha" type="matrix" values="0 0 0 0 0 0 0 0 0 0 0 0 0 0 0 0 0 0 127 0" result="hardAlpha"/>
<feOffset dy="4"/>
<feGaussianBlur stdDeviation="2"/>
<feComposite in2="hardAlpha" operator="out"/>
<feColorMatrix type="matrix" values="0 0 0 0 0 0 0 0 0 0 0 0 0 0 0 0 0 0 0.25 0"/>
<feBlend mode="normal" in2="BackgroundImageFix" result="effect1_dropShadow_627_729"/>
<feBlend mode="normal" in="SourceGraphic" in2="effect1_dropShadow_627_729" result="shape"/>
</filter>
<filter id="filter6_d_627_729" x="16" y="99.5338" width="139.762" height="10.4022" filterUnits="userSpaceOnUse" color-interpolation-filters="sRGB">
<feFlood flood-opacity="0" result="BackgroundImageFix"/>
<feColorMatrix in="SourceAlpha" type="matrix" values="0 0 0 0 0 0 0 0 0 0 0 0 0 0 0 0 0 0 127 0" result="hardAlpha"/>
<feOffset dy="4"/>
<feGaussianBlur stdDeviation="2"/>
<feComposite in2="hardAlpha" operator="out"/>
<feColorMatrix type="matrix" values="0 0 0 0 0 0 0 0 0 0 0 0 0 0 0 0 0 0 0.25 0"/>
<feBlend mode="normal" in2="BackgroundImageFix" result="effect1_dropShadow_627_729"/>
<feBlend mode="normal" in="SourceGraphic" in2="effect1_dropShadow_627_729" result="shape"/>
</filter>
<filter id="filter7_d_627_729" x="16" y="105.791" width="139.762" height="10.4021" filterUnits="userSpaceOnUse" color-interpolation-filters="sRGB">
<feFlood flood-opacity="0" result="BackgroundImageFix"/>
<feColorMatrix in="SourceAlpha" type="matrix" values="0 0 0 0 0 0 0 0 0 0 0 0 0 0 0 0 0 0 127 0" result="hardAlpha"/>
<feOffset dy="4"/>
<feGaussianBlur stdDeviation="2"/>
<feComposite in2="hardAlpha" operator="out"/>
<feColorMatrix type="matrix" values="0 0 0 0 0 0 0 0 0 0 0 0 0 0 0 0 0 0 0.25 0"/>
<feBlend mode="normal" in2="BackgroundImageFix" result="effect1_dropShadow_627_729"/>
<feBlend mode="normal" in="SourceGraphic" in2="effect1_dropShadow_627_729" result="shape"/>
</filter>
<filter id="filter8_d_627_729" x="16" y="112.049" width="139.762" height="10.4022" filterUnits="userSpaceOnUse" color-interpolation-filters="sRGB">
<feFlood flood-opacity="0" result="BackgroundImageFix"/>
<feColorMatrix in="SourceAlpha" type="matrix" values="0 0 0 0 0 0 0 0 0 0 0 0 0 0 0 0 0 0 127 0" result="hardAlpha"/>
<feOffset dy="4"/>
<feGaussianBlur stdDeviation="2"/>
<feComposite in2="hardAlpha" operator="out"/>
<feColorMatrix type="matrix" values="0 0 0 0 0 0 0 0 0 0 0 0 0 0 0 0 0 0 0.25 0"/>
<feBlend mode="normal" in2="BackgroundImageFix" result="effect1_dropShadow_627_729"/>
<feBlend mode="normal" in="SourceGraphic" in2="effect1_dropShadow_627_729" result="shape"/>
</filter>
</defs>
</svg>
